<?xml version="1.0" encoding="UTF-8" standalone="no"?>
<!-- Created with Inkscape (http://www.inkscape.org/) -->

<svg
   version="1.1"
   id="svg1"
   width="88"
   height="34"
   viewBox="0 0 1050.3333 404.16"
   sodipodi:docname="espm-seeklogo.eps"
   xmlns:inkscape="http://www.inkscape.org/namespaces/inkscape"
   xmlns:sodipodi="http://sodipodi.sourceforge.net/DTD/sodipodi-0.dtd"
   xmlns="http://www.w3.org/2000/svg"
   xmlns:svg="http://www.w3.org/2000/svg">
  <defs
     id="defs1" />
  <sodipodi:namedview
     id="namedview1"
     pagecolor="#ffffff"
     bordercolor="#000000"
     borderopacity="0.25"
     inkscape:showpageshadow="2"
     inkscape:pageopacity="0.0"
     inkscape:pagecheckerboard="0"
     inkscape:deskcolor="#d1d1d1">
    <inkscape:page
       x="0"
       y="0"
       inkscape:label="1"
       id="page1"
       width="1050.3333"
       height="404.16"
       margin="0"
       bleed="0" />
  </sodipodi:namedview>
  <g
     id="g1"
     inkscape:groupmode="layer"
     inkscape:label="1">
    <g
       id="group-R5">
      <path
         id="path2"
         d="M 7877.47,0 H 0 V 3031.24 H 7877.47 V 0"
         style="fill:#a80c30;fill-opacity:1;fill-rule:nonzero;stroke:none"
         transform="matrix(0.13333333,0,0,-0.13333333,0,404.16)" />
      <path
         id="path3"
         d="m 1072.56,593.23 h 120.82 c 103.85,0 185.46,20.11 244.83,60.372 61.44,38.199 170.62,196.539 221.66,366.578 l 213.42,-0.04 -41.91,-584.179 -1468.528,-0.191 0.07,158.378 c 69.961,6.403 118.726,27.532 146.262,63.672 27.546,35.969 41.343,93.18 41.343,171.621 V 2234.73 c 0,135.15 -81.093,206.07 -192.23,209.8 l -0.172,158.97 H 1833.05 l 1,-508.73 -191.99,0.29 c 0,0 -59.13,164.78 -186.6,273.57 -127.47,108.81 -383.37,75.9 -383.37,75.9 v -791.65 c 224.68,0 351.88,33.8 381.54,205.45 h 206.64 v -607.14 h -206.64 c -29.66,190.76 -156.86,242.71 -381.54,242.71 l 0.47,-900.67"
         style="fill:#ffffff;fill-opacity:1;fill-rule:nonzero;stroke:none"
         transform="matrix(0.13333333,0,0,-0.13333333,0,404.16)" />
      <path
         id="path4"
         d="m 3261.91,2091.53 v 333.14 c -173.33,150.06 -369.94,225.15 -589.77,225.15 -171.21,0 -312.83,-51.82 -424.88,-155.38 -109.87,-101.41 -164.86,-231.47 -164.86,-389.96 0,-179.72 99.35,-388.73 298.06,-597.97 l 282.2,-298.1 c 156.42,-164.85 234.62,-301.199 234.62,-409.031 0,-69.75 -20.1,-127.848 -60.26,-174.32 -38,-46.598 -86.63,-69.758 -145.79,-69.758 -80.4,0 -154.35,47.539 -222.01,142.668 -53.72,75.551 -98.36,203.109 -130.77,318.681 l -246.96,-0.1 22.63,-498.671 c 192.35,-90.938 378.38,-136.328 558.02,-136.328 192.39,0 349.88,54.918 472.46,164.859 122.59,109.879 183.91,252.539 183.91,427.988 0,118.422 -28.56,241.472 -85.6,338.702 -54.95,97.25 -168.07,233.6 -339.32,408.99 l -250.46,256.96 c -114.13,116.21 -171.22,218.74 -171.22,307.56 0,57.02 15.86,102.48 47.57,136.33 33.81,35.89 78.23,53.86 133.18,53.86 140.45,0 252.52,-126.04 338.15,-385.39 l 261.1,0.12"
         style="fill:#ffffff;fill-opacity:1;fill-rule:nonzero;stroke:none"
         transform="matrix(0.13333333,0,0,-0.13333333,0,404.16)" />
      <path
         id="path5"
         d="m 5009.2,2404.53 c -137.83,129.36 -338.2,194.02 -601.15,194.02 H 3530.2 v -158.99 c 114.46,-12.7 171.72,-86.96 171.72,-222.68 V 826.922 c 0,-144.16 -57.26,-223.75 -171.72,-238.633 V 429.32 h 906.5 v 158.969 c -142.09,6.422 -213.12,79.512 -213.12,219.512 V 2439.56 c 144.2,6.36 245.98,-21.23 305.29,-82.72 67.89,-76.37 101.8,-221.56 101.8,-435.74 0,-148.41 -16.93,-252.31 -50.82,-311.73 -31.88,-57.26 -90.14,-85.91 -174.96,-85.91 -46.68,0 -69.98,-23.28 -69.98,-69.97 0,-72.07 76.33,-108.08 228.96,-108.08 184.51,0 335.08,56.17 451.72,168.56 116.62,114.54 174.92,260.81 174.92,438.9 0,186.63 -60.41,337.15 -181.31,451.66"
         style="fill:#ffffff;fill-opacity:1;fill-rule:evenodd;stroke:none"
         transform="matrix(0.13333333,0,0,-0.13333333,0,404.16)" />
      <path
         id="path6"
         d="m 7357.33,910.18 -79.51,1017.92 c -12.74,163.25 -19.07,268.23 -19.07,314.9 0,72.06 13.74,121.89 41.31,149.41 21.23,21.26 64.71,39.26 130.41,54.08 v 156.61 h -715.68 c 10.61,-127.16 -19.06,-311.35 -89.04,-557.3 l -216.31,-741.16 -241.7,804.72 c -57.25,190.87 -82.72,353.75 -76.37,493.74 h -725.15 v -156.61 c 116.62,-19.01 174.9,-114.42 174.9,-286.23 0,-84.86 -5.29,-191.9 -15.9,-321.28 l -66.82,-814.25 c -12.67,-156.89 -30.68,-264 -54.04,-321.21 -23.3,-55.141 -64.69,-91.231 -124.08,-108.239 V 436.289 h 534.35 v 158.992 c -72.05,17.008 -121.91,48.809 -149.49,95.43 -27.52,48.809 -41.31,125.148 -41.31,229.059 l 63.62,1186.41 165.37,-613.9 203.63,-728.389 c 40.25,-144.18 64.61,-253.403 73.09,-327.602 h 181.3 c 16.98,129.402 74.28,345.609 171.78,648.871 l 79.49,248.12 c 116.64,362.59 185.59,608.58 213.15,737.91 l 54.06,-1005.07 c 4.24,-78.46 6.37,-124.061 6.37,-136.78 0,-91.192 -8.5,-156.949 -25.47,-197.25 -23.28,-52.981 -71.04,-98.57 -143.14,-136.809 V 436.289 h 865.23 v 158.992 c -101.84,27.578 -160.14,132.598 -174.98,314.899"
         style="fill:#ffffff;fill-opacity:1;fill-rule:evenodd;stroke:none"
         transform="matrix(0.13333333,0,0,-0.13333333,0,404.16)" />
    </g>
  </g>
</svg>
