<?xml version="1.0" encoding="UTF-8"?>
<svg id="Layer_1" data-name="Layer 1" xmlns="http://www.w3.org/2000/svg" viewBox="0 0 473.67 169.78">
  <defs>
    <style>
      .cls-1 {
        stroke: #fff;
      }

      .cls-1, .cls-2 {
        fill: none;
        opacity: .5;
        stroke-miterlimit: 10;
        stroke-width: .4px;
      }

      .cls-2 {
        stroke: #e7e614;
        opacity: 1;
      }
    </style>
  </defs>
  <path class="cls-1" d="M473.5,23.74H1.13s.35,123.5,0,123.86h472.37"/>
  <line class="cls-1" x1="1.13" y1="44.83" x2="473.5" y2="44.83"/>
  <line class="cls-1" y1=".15" x2="472.37" y2=".15"/>
  <line class="cls-1" x1="1.13" y1="169.63" x2="473.5" y2="169.63"/>
  <line class="cls-1" x1="1.13" y1="65.16" x2="473.5" y2="65.16"/>
  <line class="cls-1" x1="1.13" y1="85.86" x2="473.5" y2="85.86"/>
  <line class="cls-1" x1="1.13" y1="106.57" x2="473.5" y2="106.57"/>
  <line class="cls-1" x1="20.63" y1="23.81" x2="20.63" y2="147.48"/>
  <line class="cls-1" x1="41.22" y1="23.81" x2="41.22" y2="147.48"/>
  <line class="cls-1" x1="61.8" y1="23.81" x2="61.8" y2="147.48"/>
  <line class="cls-1" x1="82.39" y1="23.81" x2="82.39" y2="147.48"/>
  <line class="cls-1" x1="102.98" y1="23.81" x2="102.98" y2="147.48"/>
  <line class="cls-1" x1="123.56" y1="23.81" x2="123.56" y2="147.48"/>
  <line class="cls-1" x1="144.15" y1="23.81" x2="144.15" y2="147.48"/>
  <line class="cls-1" x1="164.73" y1="23.81" x2="164.73" y2="147.48"/>
  <line class="cls-1" x1="185.32" y1="23.81" x2="185.32" y2="147.48"/>
  <line class="cls-1" x1="205.91" y1="23.81" x2="205.91" y2="147.48"/>
  <line class="cls-1" x1="226.49" y1="23.81" x2="226.49" y2="147.48"/>
  <line class="cls-1" x1="247.08" y1="23.81" x2="247.08" y2="147.48"/>
  <line class="cls-1" x1="267.66" y1="23.81" x2="267.66" y2="147.48"/>
  <line class="cls-1" x1="288.25" y1="23.81" x2="288.25" y2="147.48"/>
  <line class="cls-1" x1="308.84" y1="23.81" x2="308.84" y2="147.48"/>
  <line class="cls-1" x1="329.42" y1="23.81" x2="329.42" y2="147.48"/>
  <line class="cls-1" x1="350.01" y1="23.81" x2="350.01" y2="147.48"/>
  <line class="cls-2" x1="370.59" y1="23.81" x2="370.59" y2="147.48"/>
  <line class="cls-1" x1="391.18" y1="23.81" x2="391.18" y2="147.48"/>
  <line class="cls-1" x1="411.77" y1="23.81" x2="411.77" y2="147.48"/>
  <line class="cls-1" x1="432.35" y1="23.81" x2="432.35" y2="147.48"/>
  <line class="cls-1" x1="452.94" y1="23.81" x2="452.94" y2="147.48"/>
  <line class="cls-1" x1="473.52" y1="23.81" x2="473.52" y2="147.48"/>
  <line class="cls-2" x1="1.13" y1="126.9" x2="473.5" y2="126.9"/>
</svg>