<svg width="390" height="505" viewBox="0 0 390 505" fill="none" xmlns="http://www.w3.org/2000/svg">
<g clip-path="url(#clip0_10_2)">
<path d="M33.9229 0.396973L33.923 504.397" stroke="white" stroke-width="0.5"/>
<path d="M79.9229 0.396973L79.923 504.397" stroke="white" stroke-width="0.5"/>
<path d="M125.923 0.396973V504.397" stroke="white" stroke-width="0.5"/>
<path d="M170.923 0.396973V504.397" stroke="white" stroke-width="0.5"/>
<path d="M216.923 0.396973V504.397" stroke="white" stroke-width="0.5"/>
<path d="M262.923 0.396973V504.397" stroke="#FFFF0A" stroke-width="0.5"/>
<path d="M307.923 0.396973V504.397" stroke="white" stroke-width="0.5"/>
<path d="M355.923 0.396973V504.397" stroke="white" stroke-width="0.5"/>
<path d="M-2.18848 458.05H389.812" stroke="white" stroke-width="0.5"/>
<path d="M-2.18848 412.05H389.812" stroke="white" stroke-width="0.5"/>
<path d="M-2.18848 367.05H389.812" stroke="#FFFF0A" stroke-width="0.5"/>
<path d="M-2.18848 321.05H389.812" stroke="white" stroke-width="0.5"/>
<path d="M-2.18848 275.05H389.812" stroke="white" stroke-width="0.5"/>
<path d="M-2.18848 229.05H389.812" stroke="white" stroke-width="0.5"/>
<path d="M-2.18848 184.05H389.812" stroke="white" stroke-width="0.5"/>
<path d="M-2.18848 138.05H389.812" stroke="white" stroke-width="0.5"/>
<path d="M-2.18848 92.0498H389.812" stroke="white" stroke-width="0.5"/>
<path d="M-2.18848 46.0498H389.812" stroke="white" stroke-width="0.5"/>
<path d="M-2.18848 0.25H389.812" stroke="white" stroke-width="0.5"/>
</g>
<defs>
<clipPath id="clip0_10_2">
<rect width="390" height="505" fill="white"/>
</clipPath>
</defs>
</svg>
