<?xml version="1.0" encoding="UTF-8"?>
<svg id="Layer_1" data-name="Layer 1" xmlns="http://www.w3.org/2000/svg" viewBox="0 0 473.25 184.41">
  <defs>
    <style>
      .cls-1 {
        stroke: #e7e614;
      }

      .cls-1, .cls-2 {
        fill: none;
        stroke-miterlimit: 10;
        stroke-width: .5px;
      }

      .cls-2 {
        stroke: #fff;
      }
    </style>
  </defs>
  <path class="cls-2" d="M472.98.25H.6s.35,123.5,0,123.86h472.37"/>
  <line class="cls-2" x1=".6" y1="21.33" x2="472.98" y2="21.33"/>
  <line class="cls-2" x1=".6" y1="41.66" x2="472.98" y2="41.66"/>
  <line class="cls-2" x1=".6" y1="62.37" x2="472.98" y2="62.37"/>
  <line class="cls-2" x1=".6" y1="83.07" x2="472.98" y2="83.07"/>
  <line class="cls-2" x1="20.11" y1=".32" x2="20.11" y2="123.99"/>
  <line class="cls-2" x1="40.69" y1=".32" x2="40.69" y2="123.99"/>
  <line class="cls-2" x1="61.28" y1=".32" x2="61.28" y2="123.99"/>
  <line class="cls-2" x1="81.86" y1=".32" x2="81.86" y2="123.99"/>
  <line class="cls-2" x1="102.45" y1=".32" x2="102.45" y2="123.99"/>
  <line class="cls-2" x1="123.04" y1=".32" x2="123.04" y2="123.99"/>
  <line class="cls-2" x1="143.62" y1=".32" x2="143.62" y2="123.99"/>
  <line class="cls-2" x1="164.21" y1=".32" x2="164.21" y2="123.99"/>
  <line class="cls-2" x1="184.79" y1=".32" x2="184.79" y2="123.99"/>
  <line class="cls-2" x1="205.38" y1=".32" x2="205.38" y2="123.99"/>
  <line class="cls-2" x1="225.97" y1=".32" x2="225.97" y2="123.99"/>
  <line class="cls-2" x1="246.55" y1=".32" x2="246.55" y2="123.99"/>
  <line class="cls-2" x1="267.14" y1=".32" x2="267.14" y2="123.99"/>
  <line class="cls-2" x1="287.72" y1=".32" x2="287.72" y2="123.99"/>
  <line class="cls-2" x1="308.31" y1=".32" x2="308.31" y2="123.99"/>
  <line class="cls-2" x1="328.9" y1=".32" x2="328.9" y2="123.99"/>
  <line class="cls-2" x1="349.48" y1=".32" x2="349.48" y2="123.99"/>
  <line class="cls-1" x1="370.07" y1=".32" x2="370.07" y2="123.99"/>
  <line class="cls-2" x1="390.65" y1=".32" x2="390.65" y2="123.99"/>
  <line class="cls-2" x1="411.24" y1=".32" x2="411.24" y2="123.99"/>
  <line class="cls-2" x1="431.83" y1=".32" x2="431.83" y2="123.99"/>
  <line class="cls-2" x1="452.41" y1=".32" x2="452.41" y2="123.99"/>
  <line class="cls-2" x1="473" y1=".32" x2="473" y2="123.99"/>
  <line class="cls-1" x1=".6" y1="103.4" x2="472.98" y2="103.4"/>
</svg>