<svg width="64" height="31" viewBox="0 0 64 31" fill="none" xmlns="http://www.w3.org/2000/svg">
<g clip-path="url(#clip0_290_95)">
<path d="M25.7088 14.6306C31.559 14.3049 35.7145 19.3611 34.1818 25.1838C33.0269 29.5743 29.1797 31.2786 24.9856 30.9623C15.3793 30.2353 15.1357 15.2192 25.7073 14.6306H25.7088ZM25.3958 17.8063C20.0576 18.4216 20.3089 28.3264 26.4628 27.8669C30.2236 27.5852 31.4341 23.4275 30.0957 20.2723C29.2568 18.2973 27.4312 17.5719 25.3973 17.8063H25.3958Z" fill="#2D2D2D"/>
<path d="M4.25266 14.9248V21.0386H10.7011C10.7011 21.0386 10.7072 20.7175 10.7057 20.6074C10.6887 19.4444 10.698 18.2547 10.7057 17.1122C10.7103 16.53 10.6425 15.7463 10.7057 15.2002C10.7196 15.0853 10.715 14.9956 10.826 14.9264H14.4434V30.7262H10.9031L10.7859 30.6066V24.2945H4.25266V30.7262H0.518066V14.9264H4.25266V14.9248Z" fill="#2D2D2D"/>
<path d="M63.923 14.9248V18.1808H56.6882V21.1975H63.2615L63.3787 21.3171V24.2552L63.2615 24.3748H56.6882V27.5505H64.0017V30.7262H53.0708C52.9952 30.6758 52.9536 30.4413 52.9536 30.3689V15.046L53.0708 14.9264H63.923V14.9248Z" fill="#2D2D2D"/>
<path d="M41.2839 25.5646V30.7247H37.5879L37.4707 30.6051V15.0429C37.5385 14.9296 42.8876 15.0728 45.202 15.013C48.7917 15.2632 51.2295 18.4563 49.9481 22.0584C48.6668 25.6606 44.5035 25.6606 41.2839 25.563V25.5646ZM44.667 18.1809C43.6431 18.0408 41.2824 18.1809 41.2824 18.1809V22.3889H44.5883C44.8227 22.3889 45.6523 21.9876 45.845 21.8066C47.1202 20.6138 46.3261 18.409 44.6654 18.1809H44.667Z" fill="#2D2D2D"/>
<path d="M56.3613 0.0220463C61.5576 -0.385538 65.5528 4.80919 62.8467 9.65929C60.0342 14.7014 51.8742 13.9082 50.5157 8.08403C49.5613 3.9893 52.2982 0.341504 56.3597 0.0236199L56.3613 0.0220463ZM56.1269 0.657815C52.0808 1.07799 49.626 5.6936 51.6676 9.36973C54.181 13.8956 61.5468 13.1938 62.8266 8.05256C63.9214 3.65253 60.3441 0.218757 56.1253 0.657815H56.1269Z" fill="#2D2D2D"/>
<path d="M18.7624 0.396484C21.0507 0.621521 22.625 2.45172 22.0144 4.8264C21.5811 6.51339 20.4694 6.99651 18.9937 7.46075C18.9089 7.4875 18.8534 7.40567 18.8812 7.58035L22.3027 12.5438C22.0221 12.5123 21.6598 12.646 21.4439 12.4289L17.9853 7.4639H14.0564V12.5453H13.4335V0.396484H18.7624ZM14.0549 6.82656H18.9953C20.0931 6.82656 21.3375 5.59594 21.4454 4.48334C21.7168 1.69635 20.0376 1.07159 17.6769 0.947274C16.4865 0.8859 15.2499 1.00078 14.0564 0.950421V6.82656H14.0549Z" fill="#2D2D2D"/>
<path d="M10.0104 6.98561H6.23722L6.13237 6.85499L6.12004 6.35141H10.6318V10.7577C7.70978 14.256 2.07397 13.3417 0.459553 8.99206C-1.55885 3.55183 3.41546 -1.70899 8.7398 0.620058C9.09136 0.774279 10.0227 1.34081 10.2478 1.62407C10.4159 1.83652 9.99649 2.17958 9.8315 2.13552C9.77136 2.11978 9.03894 1.50919 8.83694 1.39588C5.38144 -0.561779 0.963769 1.80504 0.670799 5.8321C0.262183 11.4549 5.89799 14.3504 10.0088 10.679V6.98718L10.0104 6.98561Z" fill="#2D2D2D"/>
<path d="M38.8724 12.5438H38.3281V0.396484H43.6571C44.7858 0.396484 46.5421 1.32496 47.1049 2.35572C48.5219 4.95073 46.5205 7.93915 43.7342 7.93915H38.9881L38.8709 8.05875V12.5453L38.8724 12.5438ZM38.8724 7.30338H43.7342C47.1311 7.30338 48.1873 2.67833 44.9677 1.35958C43.7804 0.873311 40.4421 0.791479 39.1407 0.947274C39.0282 0.961437 38.9403 0.956716 38.8724 1.07002V7.30338Z" fill="#2D2D2D"/>
<path d="M25.5686 0.396593V8.2178C25.5686 12.4211 31.4187 13.8988 33.5173 10.3753C33.7178 10.0386 34.205 8.80007 34.205 8.457V0.396593H34.828V8.29649C34.828 10.5547 32.9483 12.5313 30.8128 12.8523C27.3696 13.37 25.1831 11.3683 24.9487 7.89834V0.39502H25.5701L25.5686 0.396593Z" fill="#2D2D2D"/>
</g>
<defs>
<clipPath id="clip0_290_95">
<rect width="64" height="31" fill="white"/>
</clipPath>
</defs>
</svg>
