<svg width="258" height="101" viewBox="0 0 258 101" fill="none" xmlns="http://www.w3.org/2000/svg">
<path d="M30.0911 54.8519C24.6951 54.8519 20.0327 53.6923 16.1041 51.3729C12.2227 49.0536 9.26441 45.8823 7.22907 41.8589C5.24107 37.7883 4.24707 33.1733 4.24707 28.0139C4.24707 22.8546 5.24107 18.2633 7.22907 14.2399C9.26441 10.1693 12.2227 6.97427 16.1041 4.65494C20.0327 2.3356 24.6951 1.17594 30.0911 1.17594C35.5344 1.17594 40.1967 2.35927 44.0781 4.72594C48.0067 7.0926 50.9887 10.3586 53.0241 14.5239L44.7881 16.5829C41.9007 10.9976 37.0017 8.20494 30.0911 8.20494C26.1151 8.20494 22.8254 9.12794 20.2221 10.9739C17.6187 12.8199 15.7017 15.2576 14.4711 18.2869C13.2404 21.2689 12.6251 24.5113 12.6251 28.0139C12.6251 31.5166 13.2404 34.7589 14.4711 37.7409C15.7017 40.7229 17.6187 43.1369 20.2221 44.9829C22.8254 46.8289 26.1151 47.7519 30.0911 47.7519C34.0671 47.7519 37.4751 46.7816 40.3151 44.8409C43.2024 42.8529 45.1667 39.8236 46.2081 35.7529L54.5861 36.8889C52.5981 42.9003 49.5687 47.3969 45.4981 50.3789C41.4747 53.3609 36.3391 54.8519 30.0911 54.8519ZM102.499 53.9999H93.4109L87.8729 38.5219H67.2829L61.7449 53.9999H52.6569L72.6079 1.95694H82.5479L102.499 53.9999ZM77.5779 9.69594L69.7679 31.6349H85.3879L77.5779 9.69594ZM149.44 53.9999H140.21L125.939 32.2739H123.241H112.307V53.9999H104.568V1.95694H123.241H131.051C135.879 1.95694 139.832 3.1876 142.908 5.64894C145.985 8.06294 147.523 11.8733 147.523 17.0799C147.523 21.5766 146.34 25.0319 143.973 27.4459C141.607 29.8126 138.459 31.3036 134.53 31.9189L149.44 53.9999ZM112.307 8.77294V25.3869H126.649C129.3 25.3869 131.501 25.2449 133.252 24.9609C135.051 24.6769 136.566 23.9196 137.796 22.6889C139.074 21.4583 139.713 19.5886 139.713 17.0799C139.713 14.5713 139.074 12.7016 137.796 11.4709C136.566 10.2403 135.051 9.48294 133.252 9.19894C131.501 8.91494 129.3 8.77294 126.649 8.77294H112.307ZM160.951 1.95694V47.1129H195.954V53.9999H153.212V1.95694H160.951ZM247.195 53.9999H238.107L232.569 38.5219H211.979L206.441 53.9999H197.353L217.304 1.95694H227.244L247.195 53.9999ZM222.274 9.69594L214.464 31.6349H230.084L222.274 9.69594Z" fill="black"/>
<path d="M37.2001 98.9999H30.8001L18.4501 81.9499L11.7001 89.0999V98.9999H6.25015V62.3499H11.7001V81.9499L30.0501 62.3499H36.9001L22.1001 78.0999L37.2001 98.9999ZM74.2912 98.9999H67.8912L63.9912 88.0999H49.4912L45.5912 98.9999H39.1912L53.2412 62.3499H60.2412L74.2912 98.9999ZM56.7412 67.7999L51.2412 83.2499H62.2412L56.7412 67.7999ZM82.1986 62.3499V94.1499H106.849V98.9999H76.7486V62.3499H82.1986ZM144.434 98.9999H138.034L134.134 88.0999H119.634L115.734 98.9999H109.334L123.384 62.3499H130.384L144.434 98.9999ZM126.884 67.7999L121.384 83.2499H132.384L126.884 67.7999ZM161.491 99.5999C157.691 99.5999 154.408 98.7833 151.641 97.1499C148.908 95.5166 146.824 93.2833 145.391 90.4499C143.991 87.5833 143.291 84.3333 143.291 80.6999C143.291 77.0666 143.991 73.8333 145.391 70.9999C146.824 68.1333 148.908 65.8833 151.641 64.2499C154.408 62.6166 157.691 61.7999 161.491 61.7999C165.324 61.7999 168.608 62.6333 171.341 64.2999C174.108 65.9666 176.208 68.2666 177.641 71.1999L171.841 72.6499C169.808 68.7166 166.358 66.7499 161.491 66.7499C158.691 66.7499 156.374 67.3999 154.541 68.6999C152.708 69.9999 151.358 71.7166 150.491 73.8499C149.624 75.9499 149.191 78.2333 149.191 80.6999C149.191 83.1666 149.624 85.4499 150.491 87.5499C151.358 89.6499 152.708 91.3499 154.541 92.6499C156.374 93.9499 158.691 94.5999 161.491 94.5999C164.291 94.5999 166.691 93.9166 168.691 92.5499C170.724 91.1499 172.108 89.0166 172.841 86.1499L178.741 86.9499C177.341 91.1833 175.208 94.3499 172.341 96.4499C169.508 98.5499 165.891 99.5999 161.491 99.5999ZM207.983 77.5999V62.3499H213.433V98.9999H207.983V82.3999H188.183V98.9999H182.733V62.3499H188.183V77.5999H207.983ZM247.315 62.3499V67.1499H224.115V77.5999H238.715V82.3999H224.115V94.1999H247.315V98.9999H218.665V62.3499H247.315Z" fill="black"/>
</svg>
