<svg width="71" height="22" viewBox="0 0 71 22" fill="none" xmlns="http://www.w3.org/2000/svg">
<path d="M14.2943 8.35721C13.5627 8.35721 12.9436 8.57295 12.4653 9.00442C11.9775 9.4359 11.6773 10.0175 11.5554 10.7397H16.9958C16.8926 10.0175 16.6018 9.4359 16.1234 9.00442C15.6544 8.57295 15.0447 8.35721 14.2943 8.35721ZM18.9655 14.0883C18.7967 14.9044 17.8775 15.8611 17.174 16.3301C16.3485 16.8742 15.3918 17.1462 14.3037 17.1462C12.7748 17.1462 11.546 16.6397 10.608 15.6266C9.67005 14.6136 9.20105 13.3286 9.20105 11.7809C9.20105 10.2707 9.67005 9.00442 10.6174 7.97263C11.5648 6.94084 12.7842 6.43433 14.285 6.43433C15.7857 6.43433 16.9958 6.94084 17.9244 7.94449C18.853 8.94814 19.3126 10.2144 19.3126 11.7434L19.2938 12.475H11.5085C11.6023 13.291 11.8931 13.9383 12.3996 14.4166C12.8967 14.895 13.5533 15.1389 14.3694 15.1389C15.4762 15.1389 16.2641 14.7355 16.8738 13.5631L18.9655 14.0883Z" fill="#000000"/>
<path d="M60.4436 8.15102C60.4436 8.3949 60.4436 8.49808 60.4436 8.49808C60.4436 8.49808 57.2732 8.37614 57.2732 11.4246V16.7524H54.9282V6.51892H57.095V7.93528C57.6672 6.92225 58.7365 6.35008 60.4436 6.41574V8.15102Z" fill="#000000"/>
<path d="M24.3116 16.9868H25.2872C26.5065 16.9868 27.4352 16.621 28.0917 15.8894C28.7483 15.1577 29.0766 14.1728 29.0766 12.9441V6.47192H26.7223V12.6345C26.7223 14.1541 26.0844 14.9326 24.8088 14.9701H24.7619C23.4862 14.9326 22.8484 14.1541 22.8484 12.6345V6.47192H20.494V12.9441C20.494 14.1728 20.8223 15.1483 21.4789 15.8894C22.1355 16.621 23.0641 16.9868 24.2835 16.9868H25.259" fill="#000000"/>
<path d="M48.5311 16.9868H49.5067C50.726 16.9868 51.6547 16.621 52.3112 15.8894C52.9678 15.1577 53.2961 14.1728 53.2961 12.9441V6.47192H50.9418V12.6345C50.9418 14.1541 50.3039 14.9326 49.0283 14.9701H48.9908C47.7151 14.9326 47.0773 14.1541 47.0773 12.6345V6.47192H44.7229V12.9441C44.7229 14.1728 45.0512 15.1483 45.7078 15.8894C46.3644 16.621 47.293 16.9868 48.5124 16.9868H49.4879" fill="#000000"/>
<path fill-rule="evenodd" clip-rule="evenodd" d="M41.8629 15.7486C41.3376 15.1858 40.5028 14.9044 39.3585 14.9044H36.0098C35.5315 14.9044 35.297 14.6793 35.297 14.2385C35.297 14.004 35.372 13.807 35.5315 13.6663C35.6909 13.5256 35.8222 13.4412 35.9254 13.413C36.5163 13.6381 37.0885 13.7507 37.6419 13.7507C38.8801 13.7507 39.8743 13.3943 40.6247 12.6814C41.9004 11.4808 41.741 9.97998 41.741 9.97998H39.5836C39.5836 9.99874 39.6399 10.796 39.0583 11.2932C38.6925 11.5933 38.2329 11.7715 37.6326 11.7715C37.0322 11.7715 36.5539 11.6121 36.2068 11.2932C35.841 10.9461 35.6909 9.99874 35.6815 9.97998H33.5335C33.5335 9.99874 33.496 10.7867 33.8525 11.5652C34.0119 11.9122 34.3214 12.3343 34.5278 12.5501C33.7117 13.0191 33.3084 13.7319 33.3084 14.6793C33.3084 15.486 33.5898 16.0863 34.1526 16.4896C33.421 16.9868 33.0458 17.6527 33.0458 18.4782C33.0458 19.3974 33.421 20.0915 34.162 20.5699C34.903 21.0389 36.1036 21.2828 37.7639 21.2828C39.3678 21.2828 40.5872 20.9545 41.4127 20.3073C42.2381 19.66 42.6508 18.8815 42.6508 17.9717C42.6508 17.043 42.3882 16.3114 41.8629 15.7486ZM37.717 19.313C36.7415 19.313 36.0661 19.2098 35.6815 19.0128C35.297 18.8158 35.1094 18.4876 35.1094 18.0279C35.1094 17.5777 35.297 17.2306 35.6815 16.9868H39.2928C39.6774 16.9868 39.9682 17.0712 40.1839 17.24C40.3902 17.4089 40.5028 17.6527 40.5028 17.9717C40.5028 18.8628 39.5742 19.313 37.717 19.313Z" fill="#000000"/>
<path d="M42.5639 3.92195C42.8552 4.43447 43.2725 5.32675 43.3355 5.95001C42.3957 5.21389 41.5682 4.394 39.841 4.12852C40.5396 3.39027 40.7937 2.82806 41.0349 2.28715C41.5081 2.43764 42.3198 3.4932 42.5639 3.92195ZM32.0387 5.08398C32.4123 3.46622 34.6392 1.86408 35.5898 1.18049C36.4323 0.574273 37.4731 0 38.39 0C38.667 0 38.9319 0.0525302 39.1774 0.171786C38.1502 1.4694 34.7616 4.57928 32.2491 6.77983C31.9964 6.1509 31.9242 5.58017 32.0387 5.08398ZM33.3622 8.81711C32.8547 8.48064 32.6786 8.05544 32.5168 7.46626C35.2798 5.22524 38.1703 2.46107 39.6606 0.633192C39.8689 0.697079 40.332 1.3686 40.3957 1.74483C39.8381 3.09142 38.8224 4.20234 37.6885 5.22738C37.6835 5.23163 37.6792 5.23589 37.6742 5.24015C37.1939 5.67316 35.7831 6.93813 35.2555 7.31222L33.3622 8.81711ZM35.7995 7.82474C35.9685 7.68276 36.9369 7.08365 37.1095 6.94026C37.5354 6.58462 38.03 6.20626 38.128 5.97556C38.7422 6.21407 39.7773 7.48613 40.2325 8.06963C38.7129 7.53298 36.8009 7.70122 35.7995 7.82474ZM41.5983 8.80079C41.5983 8.80079 41.4193 8.47141 41.0686 8.0384L40.6634 7.47974C40.5603 7.35339 40.4573 7.22136 40.3528 7.08649C39.9018 6.50653 39.4058 5.87121 38.7286 5.47298C38.9777 5.2295 39.2204 4.97751 39.4523 4.71699C40.259 4.5807 42.3663 5.90316 43.007 6.84726C42.9812 7.02828 43.0378 7.31293 42.8316 7.93263C42.6068 8.60912 41.5983 8.80079 41.5983 8.80079Z" fill="#000000"/>
<path d="M64.5144 6.47192V12.634C64.5144 14.1535 65.152 14.9323 66.4275 14.97H66.4656C67.741 14.9323 68.3787 14.1535 68.3787 12.634V6.47192H70.7332V12.9436C70.7332 14.1724 70.4044 15.1573 69.7478 15.8889C69.0913 16.6205 68.1633 16.9865 66.9441 16.9866H65.949C64.7298 16.9865 63.8018 16.6205 63.1453 15.8889C62.4887 15.1479 62.1599 14.1724 62.1599 12.9436V6.47192H64.5144Z" fill="#000000"/>
<path d="M0.990982 16.0574C0.107657 15.179 0.996959 13.9158 2.22722 13.7199C2.2672 14.1796 2.47606 14.5472 2.85381 14.8227C3.23156 15.0981 3.76514 15.2363 4.45456 15.2363C5.06402 15.2363 5.53478 15.1313 5.86684 14.9212C6.19809 14.7104 6.36371 14.4276 6.36371 14.0729C6.36371 13.6787 6.16137 13.3862 5.75751 13.1956C5.35284 13.0049 4.86902 12.8498 4.30525 12.7302C3.74148 12.6107 3.17119 12.4903 2.59436 12.3675C2.01754 12.2455 1.52719 11.9611 1.12252 11.5144C0.717845 11.0684 0.515507 10.4577 0.515507 9.68293C0.515507 8.79022 0.889996 8.03162 1.63897 7.40794C2.38794 6.78425 3.37923 6.47241 4.61284 6.47241C5.81952 6.47241 6.74799 6.7681 7.39742 7.35866C7.5761 7.52104 7.73601 7.69151 7.87716 7.87005C8.41564 8.54867 8.02565 9.55124 7.16816 9.70393L6.40206 9.84046C6.34902 9.43329 6.16627 9.08913 5.85542 8.80638C5.54375 8.52443 5.10971 8.38305 4.55247 8.38305C4.00501 8.38305 3.57912 8.48 3.27643 8.67308C3.00475 8.84677 2.82607 9.13842 2.78854 9.45591C2.74204 9.85339 2.94437 10.1499 3.39637 10.3462C3.80594 10.5239 4.29138 10.6758 4.85189 10.801C5.4124 10.9263 5.98269 11.0539 6.56278 11.184C7.14287 11.314 7.63158 11.6154 8.03055 12.0888C8.42951 12.5622 8.6294 13.1907 8.6294 13.9752C8.6294 14.8946 8.25491 15.6564 7.50594 16.2599C6.75696 16.8642 5.69225 17.1655 4.31341 17.1655C2.98762 17.1655 1.97266 16.8795 1.27019 16.3083C1.17166 16.2282 1.07858 16.1445 0.990982 16.0574Z" fill="#000000"/>
</svg>
