<svg width="75" height="24" viewBox="0 0 75 24" fill="none" xmlns="http://www.w3.org/2000/svg">
<path d="M5.501 10.4154H5.27084L1.81833 2.0001C1.15079 0.377349 0.675188 0.249109 0 0.249109V0H3.68267V0.256627C3.04584 0.256627 2.50116 0.468001 2.8924 1.47181L5.6928 8.67962L8.43191 1.69055C8.89223 0.520771 8.37048 0.226409 7.78744 0.226409V0H10.7951V0.241445C10.0201 0.241445 9.52141 0.709446 9.22982 1.41889L5.501 10.4154ZM11.669 10.2947V10.0833C12.3363 10.0833 12.7123 9.63051 12.7123 8.57393V3.06419C12.7123 2.00762 12.3363 1.5548 11.669 1.5548V1.34342H14.7686V1.5548C14.101 1.5548 13.7251 2.00762 13.7251 3.06419V8.57393C13.7251 9.63051 14.101 10.0833 14.7686 10.0833V10.2947H11.669ZM21.4048 10.4154C18.566 10.4154 16.7706 8.37008 16.7706 5.87191C16.7706 3.36622 18.5967 1.2227 21.5889 1.2227C22.5327 1.2227 23.6989 1.49436 24.3663 1.84916V3.61518H24.1515C24.1515 2.80771 23.3689 1.66048 21.3741 1.66048C18.9113 1.66048 17.9292 3.47176 17.9292 5.63032C17.9292 7.78135 19.4099 9.97764 21.5275 9.97764C23.0544 9.97764 24.1132 9.15499 24.4277 8.29461L24.6579 8.37008C24.351 9.46454 23.2998 10.4154 21.4048 10.4154ZM28.0176 10.2947V10.0833C28.6775 10.0833 29.2069 9.63051 29.2069 8.57393V1.81894H27.8565C26.3911 1.81894 26.184 2.80771 26.184 3.2906H25.9538V1.35846H33.4728V3.2906H33.2426C33.2426 2.80771 33.0354 1.81894 31.5699 1.81894H30.2196V8.57393C30.2196 9.63051 30.7489 10.0833 31.4088 10.0833V10.2947H28.0176ZM34.3775 5.84921C34.3775 3.87181 35.7892 1.2227 39.073 1.2227C41.7354 1.2227 43.7302 3.10959 43.7302 5.7814C43.7302 7.7588 42.3184 10.4079 39.0346 10.4079C36.3724 10.4079 34.3775 8.52102 34.3775 5.84921ZM42.564 6.11335C42.564 3.41899 40.8377 1.66048 38.981 1.66048C37.1932 1.66048 35.5437 2.70954 35.5437 5.51711C35.5437 8.21162 37.2699 9.97013 39.1268 9.97013C40.9144 9.97013 42.564 8.92107 42.564 6.11335ZM49.8904 8.42299C49.2457 7.35875 48.6013 6.14357 47.5886 6.14357H47.2971L47.2894 8.57393C47.2894 9.63051 47.8188 10.0833 48.4786 10.0833V10.2947H45.2408V10.0833C45.9083 10.0833 46.2843 9.63051 46.2843 8.57393V3.06419C46.2843 2.00762 45.9083 1.5548 45.2408 1.5548V1.34342H48.4018C50.1205 1.35846 51.256 2.09812 51.256 3.54723C51.256 4.60396 50.4887 5.68323 49.169 6.01533C49.8826 6.29451 50.3583 7.23051 50.8263 8.03046C51.8929 9.79663 52.591 10.1287 53.0513 10.0833L53.0973 10.2947C52.8366 10.3627 52.4145 10.4154 52.0769 10.4154C50.9797 10.4154 50.4887 9.4041 49.8904 8.42299ZM50.2432 3.78882C50.2432 2.50569 49.3839 1.77369 47.9415 1.77369H47.2971V5.70593H48.4018C49.2688 5.70593 50.2432 4.95109 50.2432 3.78882ZM54.2935 10.2947V10.0833C54.961 10.0833 55.3368 9.63051 55.3368 8.57393V3.06419C55.3368 2.00762 54.961 1.5548 54.2935 1.5548V1.34342H57.3931V1.5548C56.7256 1.5548 56.3496 2.00762 56.3496 3.06419V8.57393C56.3496 9.63051 56.7256 10.0833 57.3931 10.0833V10.2947H54.2935ZM64.2673 10.2947V10.0758C64.9579 10.0758 65.4488 9.85692 65.073 8.8456L64.39 6.98892L61.4669 6.93615L60.9068 8.58897C60.5079 9.75123 61.0373 10.0833 61.7201 10.0833V10.2947H58.7125V10.0833C59.3953 10.0833 59.8556 9.57774 60.1243 8.86063L62.963 1.2227H63.1856L65.9629 8.31731C66.5997 9.93991 66.9909 10.0833 67.6125 10.0833V10.2947H64.2673ZM64.206 6.50588L62.8556 2.85297L61.6203 6.49837L64.206 6.50588ZM66.7984 2.88318C67.1973 2.46795 67.4045 2.07557 67.4045 1.78872C67.4045 1.60757 67.3047 1.35094 67.09 1.35094C66.9211 1.27547 66.783 1.1095 66.783 0.898121C66.783 0.633976 66.9902 0.301879 67.3892 0.301879C67.7574 0.301879 68.0183 0.641494 68.0183 1.15475C68.0183 1.79624 67.6423 2.31701 67.1206 2.85297L66.9442 3.03412L66.7984 2.88318ZM69.9668 9.87962V7.91726H70.1971C70.1971 8.9588 71.1561 9.97013 72.238 9.97013C73.4962 9.97013 74.1407 9.15499 74.1407 8.41533C74.1407 7.69085 73.78 7.04169 72.2685 6.07562C70.7034 5.07947 70.151 4.18121 70.151 3.2906C70.151 2.12082 71.1177 1.2227 72.6368 1.2227C73.4502 1.2227 73.9565 1.36612 74.5242 1.54728V3.28309H74.3094C74.3094 2.41518 73.7263 1.66048 72.4988 1.66048C71.5935 1.66048 70.9489 2.18126 70.9489 2.94347C70.9489 3.72839 71.4861 4.26434 72.913 5.18501C74.3708 6.12102 75 7.01914 75 7.90222C75 9.3814 73.8645 10.4079 72.1305 10.4079C71.4093 10.4079 70.4042 10.023 69.9668 9.87962ZM13.4639 23.4265V21.0867H13.7248C13.7248 22.4981 14.8143 23.5622 16.3872 23.5622C17.6761 23.5622 18.5047 22.8302 18.5047 21.8867C18.5047 20.9886 17.7221 20.0678 16.1799 19.1394C14.1698 17.8639 13.6711 16.9281 13.6711 15.9393C13.6711 14.5054 14.7606 13.4941 16.6326 13.4941C17.492 13.4941 18.0444 13.7205 18.6429 13.9469V15.9091H18.405C18.405 14.9657 17.7068 13.9469 16.4946 13.9469C15.1902 13.9469 14.4383 14.6488 14.4383 15.5318C14.4383 16.3621 15.1826 17.0263 16.8475 18.1055C18.6351 19.2603 19.3334 20.2716 19.3334 21.3886C19.3334 23.834 16.7555 24 16.0725 24C15.2517 24 13.9549 23.5924 13.4639 23.4265ZM21.274 23.8793V23.6679C21.9414 23.6679 22.3173 23.2151 22.3173 22.1585V16.6488C22.3173 15.5922 21.9414 15.1394 21.274 15.1394V14.928H27.0282V16.7319H26.7981C26.7981 16.2941 26.6677 15.4035 25.1255 15.4035C25.1255 15.4035 23.3301 15.3808 23.3301 15.396V19.0187L24.8954 19.0262C25.8927 19.0339 25.9234 18.5281 25.9387 18.0828H26.1612L26.1689 20.5207H25.9387C25.9234 20.0452 25.8927 19.5697 24.8954 19.4942C24.6267 19.4715 23.3301 19.4338 23.3301 19.4338V22.166C23.3301 23.2001 23.3761 23.4567 25.0948 23.449C26.3223 23.449 26.9284 22.815 26.9284 21.9999H27.1509V23.8793H21.274ZM33.557 24C30.7181 24 28.9228 21.9546 28.9228 19.4565C28.9228 16.9508 30.7488 14.8073 33.741 14.8073C34.6847 14.8073 35.8509 15.0789 36.5185 15.4337V17.1998H36.3036C36.3036 16.3923 35.5211 15.2451 33.5263 15.2451C31.0635 15.2451 30.0814 17.0563 30.0814 19.2149C30.0814 21.3659 31.5621 23.5622 33.6797 23.5622C35.2064 23.5622 36.2652 22.7396 36.5799 21.8792L36.8101 21.9546C36.5032 23.0491 35.452 24 33.557 24ZM42.9702 22.0076C42.3257 20.9433 41.6813 19.7281 40.6685 19.7281H40.3769L40.3693 22.1585C40.3693 23.2151 40.8986 23.6679 41.5585 23.6679V23.8793H38.3208V23.6679C38.9882 23.6679 39.3641 23.2151 39.3641 22.1585V16.6488C39.3641 15.5922 38.9882 15.1394 38.3208 15.1394V14.928H41.4818C43.2004 14.943 44.3359 15.6827 44.3359 17.1318C44.3359 18.1885 43.5687 19.2678 42.249 19.5999C42.9626 19.8791 43.4382 20.8151 43.9063 21.615C44.9727 23.3812 45.671 23.7133 46.1313 23.6679L46.1773 23.8793C45.9164 23.9472 45.4944 24 45.1569 24C44.0597 24 43.5687 22.9887 42.9702 22.0076ZM43.3231 17.3734C43.3231 16.0903 42.4639 15.3583 41.0214 15.3583H40.3769V19.2905H41.4818C42.3488 19.2905 43.3231 18.5357 43.3231 17.3734ZM47.1739 23.8793V23.6679C47.8414 23.6679 48.2174 23.2151 48.2174 22.1585V16.6488C48.2174 15.5922 47.8414 15.1394 47.1739 15.1394V14.928H52.9283V16.7319H52.6981C52.6981 16.2941 52.5676 15.4035 51.0254 15.4035C51.0254 15.4035 49.2302 15.3808 49.2302 15.396V19.0187L50.7953 19.0262C51.7928 19.0339 51.8235 18.5281 51.8388 18.0828H52.0613L52.0689 20.5207H51.8388C51.8235 20.0452 51.7928 19.5697 50.7953 19.4942C50.5267 19.4715 49.2302 19.4338 49.2302 19.4338V22.166C49.2302 23.2001 49.2762 23.4567 50.9949 23.449C52.2224 23.449 52.8285 22.815 52.8285 21.9999H53.051V23.8793H47.1739ZM56.9864 23.8793V23.6679C57.6462 23.6679 58.1756 23.2151 58.1756 22.1585V15.4035H56.8254C55.3599 15.4035 55.1527 16.3923 55.1527 16.8752H54.9225V14.943H62.4414V16.8752H62.2113C62.2113 16.3923 62.0042 15.4035 60.5387 15.4035H59.1884V22.1585C59.1884 23.2151 59.7178 23.6679 60.3777 23.6679V23.8793H56.9864Z" fill="#010101"/>
</svg>
