<svg width="75" height="18" viewBox="0 0 63 16" fill="none" xmlns="http://www.w3.org/2000/svg">
  <path d="M13.5976 15.2834L9.79078 7.11754H9.74943L5.92312 15.2834H5.51203L0 0.350342H3.51738L6.06664 7.85702H6.14934L9.58402 0.350342H9.97565L13.4322 7.87891H13.5125L16.0861 0.350342H19.477L14.0087 15.2834H13.5976Z" fill="#000000" />
  <path d="M59.4524 0.328471V8.76435L50.3427 0.289551H49.6616V15.0767H52.7485V6.70647H52.8093L61.8606 15.2202H62.4979V0.328471H59.4524Z" fill="#000000" />
  <path d="M28.0854 6.27588V9.11217H31.3766V12.4252H34.3175V6.27588H28.0854Z" fill="#000000" />
  <path d="M23.7871 7.71343C23.7871 5.10094 25.8036 3.20846 28.7834 3.20846H29.2991V0H28.8126C23.9793 0 20.5884 3.24981 20.5884 7.71343C20.5884 12.1771 23.9793 15.4244 28.8126 15.4244H29.2991V12.1868H28.7834C25.8036 12.1868 23.7871 10.3162 23.7871 7.7037" fill="#000000" />
  <path d="M37.1757 10.6932C38.351 11.7407 39.8588 12.3387 41.4326 12.3814C42.7291 12.3814 43.6218 11.7246 43.6218 10.7784C43.6218 9.72754 42.4688 9.33834 40.9461 8.72049C39.382 8.10263 37.0176 7.11504 37.0176 4.42227C37.0176 2.09681 38.949 0 42.262 0C43.5735 0.0179567 44.8627 0.341095 46.0275 0.943807V4.21551C45.0024 3.46876 43.7776 3.04524 42.5101 2.99926C41.0506 2.99926 40.2674 3.61712 40.2674 4.39795C40.2674 5.24202 41.1504 5.63122 42.3861 6.10069C44.2786 6.83044 46.9932 7.70614 46.9932 10.6251C46.9932 13.116 44.9572 15.3977 41.5226 15.3977C39.9171 15.3977 38.2095 14.8844 37.1806 14.1425L37.1757 10.6932Z" fill="#000000" />
</svg>