<svg width="17" height="17" viewBox="0 0 17 17" fill="none" xmlns="http://www.w3.org/2000/svg">
<path d="M2.34643 0C1.05223 0 0 1.05223 0 2.34643V14.0786C0 15.3728 1.05223 16.425 2.34643 16.425H14.0786C15.3728 16.425 16.425 15.3728 16.425 14.0786V2.34643C16.425 1.05223 15.3728 0 14.0786 0H2.34643ZM2.52974 6.24003H4.96783V14.0786H2.52974V6.24003ZM5.15848 3.75795C5.15848 4.53887 4.52787 5.16948 3.74695 5.16948C2.96603 5.16948 2.33543 4.53887 2.33543 3.75795C2.33543 2.97703 2.96603 2.34643 3.74695 2.34643C4.52787 2.34643 5.15848 2.97703 5.15848 3.75795ZM11.6551 14.0786V10.2656C11.6551 9.35638 11.6368 8.18684 10.3903 8.18684C9.12174 8.18684 8.92743 9.17673 8.92743 10.1996V14.0786H6.49301V6.24003H8.82844V7.31059H8.86143C9.18773 6.69465 9.98332 6.04572 11.1675 6.04572C13.6313 6.04572 14.0896 7.66989 14.0896 9.78167V14.0786H11.6551Z" fill="white"/>
</svg>
